#N canvas 158 23 450 488 10;
#N canvas 466 54 672 655 Rec1 0;
#X obj 141 159 float;
#X floatatom 220 212 5 0 0 0 - - -, f 5;
#X floatatom 191 244 5 0 0 0 - - -, f 5;
#X obj 221 158 + 1;
#X obj 114 119 bng 15 250 50 0 empty empty empty 17 7 0 10 -262144
-1 -1;
#X floatatom 180 322 5 0 0 0 - - -, f 5;
#X obj 151 360 spigot;
#X obj 132 500 adc~;
#X obj 185 569 writesf~;
#X msg 285 552 stop;
#X obj 33 530 bng 15 250 50 0 empty empty empty 17 7 0 10 -262144 -1
-1;
#X obj 38 571 bng 15 250 50 0 empty empty empty 17 7 0 10 -262144 -1
-1;
#X obj 128 -40 notein;
#X floatatom 75 -70 5 0 0 0 - - -, f 5;
#X obj 225 63 spigot;
#X obj 219 88 t b;
#X floatatom 96 34 5 0 0 0 - - -, f 5;
#X floatatom 204 38 5 0 0 0 - - -, f 5;
#X floatatom 101 325 5 0 0 0 - - -, f 5;
#X obj 72 363 spigot;
#X obj 136 296 == 0;
#X obj 57 299 == 1;
#X obj 157 -4 == 54;
#X msg 218 514 open test1.wav \, start;
#X obj 143 208 mod 12;
#X obj 181 465 delay 10000;
#X connect 0 0 1 0;
#X connect 0 0 3 0;
#X connect 0 0 24 0;
#X connect 2 0 20 0;
#X connect 2 0 21 0;
#X connect 3 0 0 1;
#X connect 4 0 0 0;
#X connect 5 0 6 1;
#X connect 5 0 6 0;
#X connect 6 0 10 0;
#X connect 7 0 8 0;
#X connect 9 0 8 0;
#X connect 10 0 23 0;
#X connect 10 0 25 0;
#X connect 11 0 9 0;
#X connect 12 0 13 0;
#X connect 12 0 22 0;
#X connect 14 0 15 0;
#X connect 15 0 4 0;
#X connect 17 0 14 1;
#X connect 17 0 14 0;
#X connect 18 0 19 1;
#X connect 18 0 19 0;
#X connect 19 0 11 0;
#X connect 20 0 5 0;
#X connect 21 0 18 0;
#X connect 22 0 16 0;
#X connect 22 0 17 0;
#X connect 23 0 8 0;
#X connect 24 0 2 0;
#X connect 25 0 11 0;
#X restore 53 47 pd Rec1;
#N canvas 623 220 450 300 Rec2 0;
#X obj 142 159 float;
#X floatatom 221 212 5 0 0 0 - - -, f 5;
#X floatatom 192 244 5 0 0 0 - - -, f 5;
#X obj 222 158 + 1;
#X obj 115 119 bng 15 250 50 0 empty empty empty 17 7 0 10 -262144
-1 -1;
#X floatatom 181 322 5 0 0 0 - - -, f 5;
#X obj 152 360 spigot;
#X obj 133 500 adc~;
#X obj 186 569 writesf~;
#X msg 286 552 stop;
#X obj 34 530 bng 15 250 50 0 empty empty empty 17 7 0 10 -262144 -1
-1;
#X obj 39 571 bng 15 250 50 0 empty empty empty 17 7 0 10 -262144 -1
-1;
#X obj 129 -40 notein;
#X floatatom 76 -70 5 0 0 0 - - -, f 5;
#X obj 226 63 spigot;
#X obj 220 88 t b;
#X floatatom 97 34 5 0 0 0 - - -, f 5;
#X floatatom 205 38 5 0 0 0 - - -, f 5;
#X floatatom 102 325 5 0 0 0 - - -, f 5;
#X obj 73 363 spigot;
#X obj 58 299 == 3;
#X obj 137 296 == 2;
#X obj 158 -4 == 54;
#X msg 219 516 open test2.wav \, start;
#X obj 144 205 mod 12;
#X obj 181 465 delay 10000;
#X connect 0 0 1 0;
#X connect 0 0 3 0;
#X connect 0 0 24 0;
#X connect 2 0 20 0;
#X connect 2 0 21 0;
#X connect 3 0 0 1;
#X connect 4 0 0 0;
#X connect 5 0 6 1;
#X connect 5 0 6 0;
#X connect 6 0 10 0;
#X connect 7 0 8 0;
#X connect 9 0 8 0;
#X connect 10 0 23 0;
#X connect 10 0 25 0;
#X connect 11 0 9 0;
#X connect 12 0 13 0;
#X connect 12 0 22 0;
#X connect 14 0 15 0;
#X connect 15 0 4 0;
#X connect 17 0 14 1;
#X connect 17 0 14 0;
#X connect 18 0 19 1;
#X connect 18 0 19 0;
#X connect 19 0 11 0;
#X connect 20 0 18 0;
#X connect 21 0 5 0;
#X connect 22 0 16 0;
#X connect 22 0 17 0;
#X connect 23 0 8 0;
#X connect 24 0 2 0;
#X connect 25 0 11 0;
#X restore 53 63 pd Rec2;
#N canvas 298 23 450 300 Rec3 0;
#X obj 141 159 float;
#X floatatom 220 212 5 0 0 0 - - -, f 5;
#X floatatom 191 244 5 0 0 0 - - -, f 5;
#X obj 221 158 + 1;
#X obj 114 119 bng 15 250 50 0 empty empty empty 17 7 0 10 -262144
-1 -1;
#X floatatom 180 322 5 0 0 0 - - -, f 5;
#X obj 151 360 spigot;
#X obj 132 500 adc~;
#X obj 185 569 writesf~;
#X msg 285 552 stop;
#X obj 33 530 bng 15 250 50 0 empty empty empty 17 7 0 10 -262144 -1
-1;
#X obj 38 571 bng 15 250 50 0 empty empty empty 17 7 0 10 -262144 -1
-1;
#X obj 128 -40 notein;
#X floatatom 75 -70 5 0 0 0 - - -, f 5;
#X obj 225 63 spigot;
#X obj 219 88 t b;
#X floatatom 96 34 5 0 0 0 - - -, f 5;
#X floatatom 204 38 5 0 0 0 - - -, f 5;
#X floatatom 101 325 5 0 0 0 - - -, f 5;
#X obj 72 363 spigot;
#X obj 57 299 == 5;
#X obj 136 296 == 4;
#X obj 157 -4 == 54;
#X msg 218 514 open test3.wav \, start;
#X obj 143 205 mod 12;
#X obj 181 465 delay 10000;
#X connect 0 0 1 0;
#X connect 0 0 3 0;
#X connect 0 0 24 0;
#X connect 2 0 20 0;
#X connect 2 0 21 0;
#X connect 3 0 0 1;
#X connect 4 0 0 0;
#X connect 5 0 6 1;
#X connect 5 0 6 0;
#X connect 6 0 10 0;
#X connect 7 0 8 0;
#X connect 9 0 8 0;
#X connect 10 0 23 0;
#X connect 10 0 25 0;
#X connect 11 0 9 0;
#X connect 12 0 13 0;
#X connect 12 0 22 0;
#X connect 14 0 15 0;
#X connect 15 0 4 0;
#X connect 17 0 14 1;
#X connect 17 0 14 0;
#X connect 18 0 19 1;
#X connect 18 0 19 0;
#X connect 19 0 11 0;
#X connect 20 0 18 0;
#X connect 21 0 5 0;
#X connect 22 0 16 0;
#X connect 22 0 17 0;
#X connect 23 0 8 0;
#X connect 24 0 2 0;
#X connect 25 0 11 0;
#X restore 53 79 pd Rec3;
#N canvas 773 23 450 300 Rec4 0;
#X obj 141 159 float;
#X floatatom 223 212 5 0 0 0 - - -, f 5;
#X floatatom 191 244 5 0 0 0 - - -, f 5;
#X obj 221 158 + 1;
#X obj 114 119 bng 15 250 50 0 empty empty empty 17 7 0 10 -262144
-1 -1;
#X floatatom 180 322 5 0 0 0 - - -, f 5;
#X obj 151 360 spigot;
#X obj 132 500 adc~;
#X obj 185 569 writesf~;
#X msg 285 552 stop;
#X obj 33 530 bng 15 250 50 0 empty empty empty 17 7 0 10 -262144 -1
-1;
#X obj 38 571 bng 15 250 50 0 empty empty empty 17 7 0 10 -262144 -1
-1;
#X obj 128 -40 notein;
#X floatatom 75 -70 5 0 0 0 - - -, f 5;
#X obj 225 63 spigot;
#X obj 219 88 t b;
#X floatatom 96 34 5 0 0 0 - - -, f 5;
#X floatatom 204 38 5 0 0 0 - - -, f 5;
#X floatatom 101 325 5 0 0 0 - - -, f 5;
#X obj 72 363 spigot;
#X obj 57 299 == 7;
#X obj 136 296 == 6;
#X obj 157 -4 == 54;
#X msg 218 514 open test4.wav \, start;
#X obj 143 205 mod 12;
#X obj 181 465 delay 10000;
#X connect 0 0 1 0;
#X connect 0 0 3 0;
#X connect 0 0 24 0;
#X connect 2 0 20 0;
#X connect 2 0 21 0;
#X connect 3 0 0 1;
#X connect 4 0 0 0;
#X connect 5 0 6 1;
#X connect 5 0 6 0;
#X connect 6 0 10 0;
#X connect 7 0 8 0;
#X connect 9 0 8 0;
#X connect 10 0 23 0;
#X connect 10 0 25 0;
#X connect 11 0 9 0;
#X connect 12 0 13 0;
#X connect 12 0 22 0;
#X connect 14 0 15 0;
#X connect 15 0 4 0;
#X connect 17 0 14 1;
#X connect 17 0 14 0;
#X connect 18 0 19 1;
#X connect 18 0 19 0;
#X connect 19 0 11 0;
#X connect 20 0 18 0;
#X connect 21 0 5 0;
#X connect 22 0 16 0;
#X connect 22 0 17 0;
#X connect 23 0 8 0;
#X connect 24 0 2 0;
#X connect 25 0 11 0;
#X restore 53 95 pd Rec4;
#N canvas 506 23 450 300 Rec5 0;
#X obj 141 159 float;
#X floatatom 220 212 5 0 0 0 - - -, f 5;
#X floatatom 191 244 5 0 0 0 - - -, f 5;
#X obj 221 158 + 1;
#X obj 114 119 bng 15 250 50 0 empty empty empty 17 7 0 10 -262144
-1 -1;
#X floatatom 180 322 5 0 0 0 - - -, f 5;
#X obj 151 360 spigot;
#X obj 132 500 adc~;
#X obj 185 569 writesf~;
#X msg 285 552 stop;
#X obj 33 530 bng 15 250 50 0 empty empty empty 17 7 0 10 -262144 -1
-1;
#X obj 38 571 bng 15 250 50 0 empty empty empty 17 7 0 10 -262144 -1
-1;
#X obj 128 -40 notein;
#X floatatom 75 -70 5 0 0 0 - - -, f 5;
#X obj 225 63 spigot;
#X obj 219 88 t b;
#X floatatom 96 34 5 0 0 0 - - -, f 5;
#X floatatom 204 38 5 0 0 0 - - -, f 5;
#X floatatom 101 325 5 0 0 0 - - -, f 5;
#X obj 72 363 spigot;
#X obj 57 299 == 9;
#X obj 136 296 == 8;
#X obj 157 -4 == 54;
#X msg 218 514 open test5.wav \, start;
#X obj 143 205 mod 12;
#X obj 181 465 delay 10000;
#X connect 0 0 1 0;
#X connect 0 0 3 0;
#X connect 0 0 24 0;
#X connect 2 0 20 0;
#X connect 2 0 21 0;
#X connect 3 0 0 1;
#X connect 4 0 0 0;
#X connect 5 0 6 1;
#X connect 5 0 6 0;
#X connect 6 0 10 0;
#X connect 7 0 8 0;
#X connect 9 0 8 0;
#X connect 10 0 23 0;
#X connect 10 0 25 0;
#X connect 11 0 9 0;
#X connect 12 0 13 0;
#X connect 12 0 22 0;
#X connect 14 0 15 0;
#X connect 15 0 4 0;
#X connect 17 0 14 1;
#X connect 17 0 14 0;
#X connect 18 0 19 1;
#X connect 18 0 19 0;
#X connect 19 0 11 0;
#X connect 20 0 18 0;
#X connect 21 0 5 0;
#X connect 22 0 16 0;
#X connect 22 0 17 0;
#X connect 23 0 8 0;
#X connect 24 0 2 0;
#X connect 25 0 11 0;
#X restore 53 111 pd Rec5;
#N canvas 568 23 450 300 Rec6 0;
#X obj 141 159 float;
#X floatatom 220 212 5 0 0 0 - - -, f 5;
#X floatatom 191 244 5 0 0 0 - - -, f 5;
#X obj 221 158 + 1;
#X obj 114 119 bng 15 250 50 0 empty empty empty 17 7 0 10 -262144
-1 -1;
#X floatatom 180 322 5 0 0 0 - - -, f 5;
#X obj 151 360 spigot;
#X obj 132 500 adc~;
#X obj 185 569 writesf~;
#X msg 285 552 stop;
#X obj 33 530 bng 15 250 50 0 empty empty empty 17 7 0 10 -262144 -1
-1;
#X obj 38 571 bng 15 250 50 0 empty empty empty 17 7 0 10 -262144 -1
-1;
#X obj 128 -40 notein;
#X floatatom 75 -70 5 0 0 0 - - -, f 5;
#X obj 225 63 spigot;
#X obj 219 88 t b;
#X floatatom 96 34 5 0 0 0 - - -, f 5;
#X floatatom 204 38 5 0 0 0 - - -, f 5;
#X floatatom 101 325 5 0 0 0 - - -, f 5;
#X obj 72 363 spigot;
#X obj 57 299 == 11;
#X obj 136 296 == 10;
#X obj 157 -4 == 54;
#X msg 218 514 open test6.wav \, start;
#X obj 143 205 mod 12;
#X obj 181 465 delay 10000;
#X connect 0 0 1 0;
#X connect 0 0 3 0;
#X connect 0 0 24 0;
#X connect 2 0 20 0;
#X connect 2 0 21 0;
#X connect 3 0 0 1;
#X connect 4 0 0 0;
#X connect 5 0 6 1;
#X connect 5 0 6 0;
#X connect 6 0 10 0;
#X connect 7 0 8 0;
#X connect 9 0 8 0;
#X connect 10 0 23 0;
#X connect 10 0 25 0;
#X connect 11 0 9 0;
#X connect 12 0 13 0;
#X connect 12 0 22 0;
#X connect 14 0 15 0;
#X connect 15 0 4 0;
#X connect 17 0 14 1;
#X connect 17 0 14 0;
#X connect 18 0 19 1;
#X connect 18 0 19 0;
#X connect 19 0 11 0;
#X connect 20 0 18 0;
#X connect 21 0 5 0;
#X connect 22 0 16 0;
#X connect 22 0 17 0;
#X connect 23 0 8 0;
#X connect 24 0 2 0;
#X connect 25 0 11 0;
#X restore 53 127 pd Rec6;
#X obj 103 349 *~;
#X obj 133 227 env~;
#X obj 133 249 dbtorms;
#X obj 133 293 -;
#X obj 133 315 lop~ 20;
#X obj 103 411 dac~;
#X obj 270 243 vsl 15 128 0 1 0 0 empty empty empty 0 -9 0 10 -262144
-1 -1 12700 1;
#X msg 133 271 1 \$1;
#N canvas 128 130 958 561 Ply1 0;
#X obj 759 282 readsf~;
#X obj 518 159 bng 15 250 50 0 empty empty empty 17 7 0 10 -262144
-1 -1;
#X obj 332 40 notein;
#X floatatom 280 10 5 0 0 0 - - -, f 5;
#X obj 429 143 spigot;
#X obj 423 168 t b;
#X floatatom 300 114 5 0 0 0 - - -, f 5;
#X floatatom 408 118 5 0 0 0 - - -, f 5;
#X obj 65 145 float;
#X floatatom 144 198 5 0 0 0 - - -, f 5;
#X floatatom 69 229 5 0 0 0 - - -, f 5;
#X obj 145 144 + 1;
#X obj 38 105 bng 15 250 50 0 empty empty empty 17 7 0 10 -262144 -1
-1;
#X obj 60 282 == 0;
#X obj 67 191 mod 2;
#X floatatom 131 322 5 0 0 0 - - -, f 5;
#X obj 102 360 spigot;
#X obj 110 389 t b;
#X msg 834 270 stop;
#X obj 463 270 bng 15 250 50 0 empty empty empty 17 7 0 10 -262144
-1 -1;
#X floatatom 258 316 5 0 0 0 - - -, f 5;
#X obj 229 354 spigot;
#X obj 242 400 t b;
#X obj 187 276 == 1;
#X msg 759 241 open test1.wav \, 1;
#X obj 361 76 == 48;
#X obj 783 368 outlet~;
#X connect 0 0 26 0;
#X connect 1 0 24 0;
#X connect 2 0 3 0;
#X connect 2 0 25 0;
#X connect 4 0 5 0;
#X connect 5 0 12 0;
#X connect 7 0 4 1;
#X connect 7 0 4 0;
#X connect 8 0 9 0;
#X connect 8 0 11 0;
#X connect 8 0 14 0;
#X connect 10 0 13 0;
#X connect 10 0 23 0;
#X connect 11 0 8 1;
#X connect 12 0 8 0;
#X connect 13 0 15 0;
#X connect 14 0 10 0;
#X connect 15 0 16 1;
#X connect 15 0 16 0;
#X connect 16 0 17 0;
#X connect 17 0 1 0;
#X connect 18 0 0 0;
#X connect 19 0 18 0;
#X connect 20 0 21 1;
#X connect 20 0 21 0;
#X connect 21 0 22 0;
#X connect 22 0 19 0;
#X connect 23 0 20 0;
#X connect 24 0 0 0;
#X connect 25 0 6 0;
#X connect 25 0 7 0;
#X restore 130 47 pd Ply1;
#N canvas 505 66 958 561 Ply2 0;
#X obj 603 310 readsf~;
#X obj 362 207 bng 15 250 50 0 empty empty empty 17 7 0 10 -262144
-1 -1;
#X obj 163 38 notein;
#X floatatom 110 8 5 0 0 0 - - -, f 5;
#X obj 260 141 spigot;
#X obj 274 170 t b;
#X floatatom 131 112 5 0 0 0 - - -, f 5;
#X floatatom 239 116 5 0 0 0 - - -, f 5;
#X obj 34 221 float;
#X floatatom 113 274 5 0 0 0 - - -, f 5;
#X floatatom 38 305 5 0 0 0 - - -, f 5;
#X obj 114 220 + 1;
#X obj 7 181 bng 15 250 50 0 empty empty empty 17 7 0 10 -262144 -1
-1;
#X obj 29 358 == 0;
#X obj 36 267 mod 2;
#X floatatom 100 398 5 0 0 0 - - -, f 5;
#X obj 71 436 spigot;
#X obj 79 465 t b;
#X msg 677 292 stop;
#X obj 540 297 bng 15 250 50 0 empty empty empty 17 7 0 10 -262144
-1 -1;
#X floatatom 248 378 5 0 0 0 - - -, f 5;
#X obj 219 416 spigot;
#X obj 227 445 t b;
#X obj 177 338 == 1;
#X floatatom 156 517 5 0 0 0 - - -, f 5;
#X obj 192 74 == 49;
#X msg 603 258 open test2.wav \, 1;
#X obj 633 404 outlet~;
#X connect 0 0 27 0;
#X connect 1 0 26 0;
#X connect 2 0 3 0;
#X connect 2 0 25 0;
#X connect 4 0 5 0;
#X connect 5 0 12 0;
#X connect 7 0 4 1;
#X connect 7 0 4 0;
#X connect 8 0 9 0;
#X connect 8 0 11 0;
#X connect 8 0 14 0;
#X connect 10 0 13 0;
#X connect 10 0 23 0;
#X connect 11 0 8 1;
#X connect 12 0 8 0;
#X connect 13 0 15 0;
#X connect 14 0 10 0;
#X connect 15 0 16 1;
#X connect 15 0 16 0;
#X connect 16 0 17 0;
#X connect 17 0 1 0;
#X connect 18 0 0 0;
#X connect 19 0 18 0;
#X connect 20 0 21 1;
#X connect 20 0 21 0;
#X connect 21 0 22 0;
#X connect 22 0 19 0;
#X connect 23 0 20 0;
#X connect 25 0 6 0;
#X connect 25 0 7 0;
#X connect 26 0 0 0;
#X restore 130 63 pd Ply2;
#N canvas 791 23 450 300 Ply3 0;
#X obj 725 335 readsf~;
#X obj 484 232 bng 15 250 50 0 empty empty empty 17 7 0 10 -262144
-1 -1;
#X obj 281 33 notein;
#X obj 378 136 spigot;
#X obj 372 161 t b;
#X floatatom 249 107 5 0 0 0 - - -, f 5;
#X floatatom 357 111 5 0 0 0 - - -, f 5;
#X obj 46 180 float;
#X floatatom 125 233 5 0 0 0 - - -, f 5;
#X floatatom 50 264 5 0 0 0 - - -, f 5;
#X obj 126 179 + 1;
#X obj 19 140 bng 15 250 50 0 empty empty empty 17 7 0 10 -262144 -1
-1;
#X obj 41 317 == 0;
#X obj 48 226 mod 2;
#X floatatom 112 357 5 0 0 0 - - -, f 5;
#X obj 83 395 spigot;
#X obj 91 424 t b;
#X msg 787 311 stop;
#X obj 624 315 bng 15 250 50 0 empty empty empty 17 7 0 10 -262144
-1 -1;
#X floatatom 258 343 5 0 0 0 - - -, f 5;
#X obj 229 381 spigot;
#X obj 237 410 t b;
#X obj 187 303 == 1;
#X msg 725 275 open test3.wav \, 1;
#X obj 310 69 == 50;
#X obj 712 407 outlet~;
#X connect 0 0 25 0;
#X connect 1 0 23 0;
#X connect 2 0 24 0;
#X connect 3 0 4 0;
#X connect 4 0 11 0;
#X connect 6 0 3 1;
#X connect 6 0 3 0;
#X connect 7 0 8 0;
#X connect 7 0 10 0;
#X connect 7 0 13 0;
#X connect 9 0 12 0;
#X connect 9 0 22 0;
#X connect 10 0 7 1;
#X connect 11 0 7 0;
#X connect 12 0 14 0;
#X connect 13 0 9 0;
#X connect 14 0 15 1;
#X connect 14 0 15 0;
#X connect 15 0 16 0;
#X connect 16 0 1 0;
#X connect 17 0 0 0;
#X connect 18 0 17 0;
#X connect 19 0 20 1;
#X connect 19 0 20 0;
#X connect 20 0 21 0;
#X connect 21 0 18 0;
#X connect 22 0 19 0;
#X connect 23 0 0 0;
#X connect 24 0 5 0;
#X connect 24 0 6 0;
#X restore 130 80 pd Ply3;
#N canvas 600 23 450 300 Ply4 0;
#X obj 626 361 readsf~;
#X obj 385 258 bng 15 250 50 0 empty empty empty 17 7 0 10 -262144
-1 -1;
#X obj 182 59 notein;
#X floatatom 131 29 5 0 0 0 - - -, f 5;
#X obj 279 162 spigot;
#X obj 273 187 t b;
#X floatatom 150 133 5 0 0 0 - - -, f 5;
#X floatatom 258 137 5 0 0 0 - - -, f 5;
#X obj -53 206 float;
#X floatatom 26 259 5 0 0 0 - - -, f 5;
#X floatatom -49 290 5 0 0 0 - - -, f 5;
#X obj 27 205 + 1;
#X obj -80 166 bng 15 250 50 0 empty empty empty 17 7 0 10 -262144
-1 -1;
#X obj -58 343 == 0;
#X obj -51 252 mod 2;
#X floatatom 13 383 5 0 0 0 - - -, f 5;
#X obj -16 421 spigot;
#X obj -8 450 t b;
#X msg 688 337 stop;
#X obj 525 341 bng 15 250 50 0 empty empty empty 17 7 0 10 -262144
-1 -1;
#X floatatom 159 369 5 0 0 0 - - -, f 5;
#X obj 130 407 spigot;
#X obj 138 436 t b;
#X obj 88 329 == 1;
#X msg 626 301 open test4.wav \, 1;
#X obj 211 95 == 51;
#X obj 622 399 outlet~;
#X connect 0 0 26 0;
#X connect 1 0 24 0;
#X connect 2 0 3 0;
#X connect 2 0 25 0;
#X connect 4 0 5 0;
#X connect 5 0 12 0;
#X connect 7 0 4 1;
#X connect 7 0 4 0;
#X connect 8 0 9 0;
#X connect 8 0 11 0;
#X connect 8 0 14 0;
#X connect 10 0 13 0;
#X connect 10 0 23 0;
#X connect 11 0 8 1;
#X connect 12 0 8 0;
#X connect 13 0 15 0;
#X connect 14 0 10 0;
#X connect 15 0 16 1;
#X connect 15 0 16 0;
#X connect 16 0 17 0;
#X connect 17 0 1 0;
#X connect 18 0 0 0;
#X connect 19 0 18 0;
#X connect 20 0 21 1;
#X connect 20 0 21 0;
#X connect 21 0 22 0;
#X connect 22 0 19 0;
#X connect 23 0 20 0;
#X connect 24 0 0 0;
#X connect 25 0 6 0;
#X connect 25 0 7 0;
#X restore 130 96 pd Ply4;
#N canvas 403 27 450 300 Ply5 0;
#X obj 716 341 readsf~;
#X obj 475 238 bng 15 250 50 0 empty empty empty 17 7 0 10 -262144
-1 -1;
#X obj 272 39 notein;
#X floatatom 219 9 5 0 0 0 - - -, f 5;
#X obj 369 142 spigot;
#X obj 363 167 t b;
#X floatatom 240 113 5 0 0 0 - - -, f 5;
#X floatatom 348 117 5 0 0 0 - - -, f 5;
#X obj 37 186 float;
#X floatatom 116 239 5 0 0 0 - - -, f 5;
#X floatatom 41 270 5 0 0 0 - - -, f 5;
#X obj 117 185 + 1;
#X obj 10 146 bng 15 250 50 0 empty empty empty 17 7 0 10 -262144 -1
-1;
#X obj 32 323 == 0;
#X obj 39 232 mod 2;
#X floatatom 103 363 5 0 0 0 - - -, f 5;
#X obj 74 401 spigot;
#X obj 82 430 t b;
#X msg 778 317 stop;
#X obj 615 321 bng 15 250 50 0 empty empty empty 17 7 0 10 -262144
-1 -1;
#X floatatom 249 349 5 0 0 0 - - -, f 5;
#X obj 220 387 spigot;
#X obj 228 416 t b;
#X obj 178 309 == 1;
#X msg 716 281 open test5.wav \, 1;
#X obj 301 75 == 52;
#X obj 726 399 outlet~;
#X connect 0 0 26 0;
#X connect 1 0 24 0;
#X connect 2 0 3 0;
#X connect 2 0 25 0;
#X connect 4 0 5 0;
#X connect 5 0 12 0;
#X connect 7 0 4 1;
#X connect 7 0 4 0;
#X connect 8 0 9 0;
#X connect 8 0 11 0;
#X connect 8 0 14 0;
#X connect 10 0 13 0;
#X connect 10 0 23 0;
#X connect 11 0 8 1;
#X connect 12 0 8 0;
#X connect 13 0 15 0;
#X connect 14 0 10 0;
#X connect 15 0 16 1;
#X connect 15 0 16 0;
#X connect 16 0 17 0;
#X connect 17 0 1 0;
#X connect 18 0 0 0;
#X connect 19 0 18 0;
#X connect 20 0 21 1;
#X connect 20 0 21 0;
#X connect 21 0 22 0;
#X connect 22 0 19 0;
#X connect 23 0 20 0;
#X connect 24 0 0 0;
#X connect 25 0 6 0;
#X connect 25 0 7 0;
#X restore 130 112 pd Ply5;
#N canvas 522 23 450 300 Ply6 0;
#X obj 561 348 readsf~;
#X obj 320 245 bng 15 250 50 0 empty empty empty 17 7 0 10 -262144
-1 -1;
#X obj 117 46 notein;
#X floatatom 64 16 5 0 0 0 - - -, f 5;
#X obj 214 149 spigot;
#X obj 208 174 t b;
#X floatatom 85 120 5 0 0 0 - - -, f 5;
#X floatatom 193 124 5 0 0 0 - - -, f 5;
#X obj -118 193 float;
#X floatatom -39 246 5 0 0 0 - - -, f 5;
#X floatatom -114 277 5 0 0 0 - - -, f 5;
#X obj -38 192 + 1;
#X obj -145 153 bng 15 250 50 0 empty empty empty 17 7 0 10 -262144
-1 -1;
#X obj -123 330 == 0;
#X obj -116 239 mod 2;
#X floatatom -52 370 5 0 0 0 - - -, f 5;
#X obj -81 408 spigot;
#X obj -73 437 t b;
#X msg 623 324 stop;
#X obj 460 328 bng 15 250 50 0 empty empty empty 17 7 0 10 -262144
-1 -1;
#X floatatom 94 356 5 0 0 0 - - -, f 5;
#X obj 65 394 spigot;
#X obj 73 423 t b;
#X obj 23 316 == 1;
#X msg 561 288 open test6.wav \, 1;
#X obj 146 82 == 53;
#X obj 571 410 outlet~;
#X connect 0 0 26 0;
#X connect 1 0 24 0;
#X connect 2 0 3 0;
#X connect 2 0 25 0;
#X connect 4 0 5 0;
#X connect 5 0 12 0;
#X connect 7 0 4 1;
#X connect 7 0 4 0;
#X connect 8 0 9 0;
#X connect 8 0 11 0;
#X connect 8 0 14 0;
#X connect 10 0 13 0;
#X connect 10 0 23 0;
#X connect 11 0 8 1;
#X connect 12 0 8 0;
#X connect 13 0 15 0;
#X connect 14 0 10 0;
#X connect 15 0 16 1;
#X connect 15 0 16 0;
#X connect 16 0 17 0;
#X connect 17 0 1 0;
#X connect 18 0 0 0;
#X connect 19 0 18 0;
#X connect 20 0 21 1;
#X connect 20 0 21 0;
#X connect 21 0 22 0;
#X connect 22 0 19 0;
#X connect 23 0 20 0;
#X connect 24 0 0 0;
#X connect 25 0 6 0;
#X connect 25 0 7 0;
#X restore 130 128 pd Ply6;
#X obj 15 17 cnv 15 215 23 empty empty Midi_Record_&_Playback 20 12
0 14 -204786 -66577 0;
#X obj 105 202 cnv 15 99 23 empty empty Limiter 20 12 0 14 -204786
-66577 0;
#X connect 6 0 11 0;
#X connect 6 0 11 1;
#X connect 7 0 8 0;
#X connect 8 0 13 0;
#X connect 9 0 10 0;
#X connect 9 0 12 0;
#X connect 10 0 6 1;
#X connect 13 0 9 0;
#X connect 14 0 7 0;
#X connect 14 0 6 0;
#X connect 15 0 7 0;
#X connect 15 0 6 0;
#X connect 16 0 7 0;
#X connect 16 0 6 0;
#X connect 17 0 7 0;
#X connect 17 0 6 0;
#X connect 18 0 7 0;
#X connect 18 0 6 0;
#X connect 19 0 7 0;
#X connect 19 0 6 0;
